<svg xmlns="http://www.w3.org/2000/svg" viewBox="0 0 48 48">
  <circle cx="24" cy="24" r="24" fill="#5865F2"/>
  <path d="M32.5 16.3a21.5 21.5 0 0 0-5.4-1.7l-.2.5a19.8 19.8 0 0 0-5.8 0l-.2-.5a21.4 21.4 0 0 0-5.4 1.7A22.3 22.3 0 0 0 11.6 32a21.6 21.6 0 0 0 6.6 3.3l.5-.7a.1.1 0 0 0 0-.1 14.1 14.1 0 0 1-2.2-1.1.1.1 0 0 1 0-.2l.4-.3a15.4 15.4 0 0 0 13.2 0l.4.3a.1.1 0 0 1 0 .2c-.7.4-1.4.8-2.2 1.1a.1.1 0 0 0 0 .1l.5.7a21.5 21.5 0 0 0 6.6-3.3 22.2 22.2 0 0 0-3.9-15.7zM19.5 28.6c-1.3 0-2.4-1.2-2.4-2.8s1.1-2.8 2.4-2.8 2.5 1.3 2.4 2.8c0 1.6-1.1 2.8-2.4 2.8zm8.8 0c-1.3 0-2.4-1.2-2.4-2.8s1.1-2.8 2.4-2.8 2.5 1.3 2.4 2.8c0 1.6-1 2.8-2.4 2.8z" fill="#fff"/>
</svg>
